<?xml version="1.0" encoding="UTF-8" standalone="no"?>
<!-- Created with Inkscape (http://www.inkscape.org/) -->

<svg
   version="1.1"
   id="svg1"
   width="708"
   height="564"
   viewBox="0 0 708 564"
   sodipodi:docname="logo.svg"
   inkscape:version="1.3.2 (091e20e, 2023-11-25, custom)"
   xmlns:inkscape="http://www.inkscape.org/namespaces/inkscape"
   xmlns:sodipodi="http://sodipodi.sourceforge.net/DTD/sodipodi-0.dtd"
   xmlns="http://www.w3.org/2000/svg"
   xmlns:svg="http://www.w3.org/2000/svg">
  <defs
     id="defs1" />
  <sodipodi:namedview
     id="namedview1"
     pagecolor="#505050"
     bordercolor="#eeeeee"
     borderopacity="1"
     inkscape:showpageshadow="0"
     inkscape:pageopacity="0"
     inkscape:pagecheckerboard="0"
     inkscape:deskcolor="#505050"
     inkscape:zoom="1.0192869"
     inkscape:cx="562.15772"
     inkscape:cy="215.34663"
     inkscape:window-width="1920"
     inkscape:window-height="1009"
     inkscape:window-x="1912"
     inkscape:window-y="-8"
     inkscape:window-maximized="1"
     inkscape:current-layer="g1" />
  <g
     inkscape:groupmode="layer"
     inkscape:label="Image"
     id="g1">
    <path
       style="fill:#ffffff;stroke-width:0.981078"
       d="m 177.90977,505.64887 c 0.98382,-3.27073 12.41937,-62.70535 12.41937,-64.54789 0,-0.97315 -4.11075,-6.03079 -9.13499,-11.2392 -5.02424,-5.20841 -10.485,-11.45652 -12.13502,-13.88469 -4.27663,-6.2935 -10.47921,-19.03417 -12.89577,-26.48911 -4.9811,-15.36635 -23.87736,-81.53049 -25.32437,-88.67175 -2.12055,-10.46538 -1.38696,-32.51055 1.39136,-41.81163 10.95556,-36.67635 40.44197,-63.20409 77.9048,-70.08781 4.48509,-0.82413 19.19184,-2.39841 32.68167,-3.4984 29.83001,-2.43242 29.13834,-2.30376 28.39114,-5.28082 -0.31735,-1.26442 -0.0788,-4.1492 0.53015,-6.41061 3.31993,-12.32926 22.43682,-21.65986 44.37756,-21.65986 21.42112,0 38.68224,7.2968 44.52187,18.82077 l 2.45971,4.854 5.10147,-0.57658 c 28.39757,-3.20957 79.48919,-6.74559 98.30389,-6.80355 20.92826,-0.0645 21.84946,0.0162 30.33451,2.65521 9.62775,2.99445 23.24716,9.43376 30.6381,14.48582 7.2607,4.96303 20.9421,19.18205 26.21381,27.24392 12.71503,19.44466 18.00229,44.65764 13.91809,66.37001 -2.19465,11.66709 -33.96169,122.59823 -37.70744,131.67515 -6.00031,14.54026 -19.53236,31.36551 -32.98365,41.01064 -13.09798,9.39179 -31.01604,16.34625 -46.87815,18.19461 -10.63454,1.23922 -17.15047,0.96986 -87.52954,-3.61834 -29.13802,-1.89958 -58.49678,-3.52265 -65.24169,-3.60681 l -12.26348,-0.15303 -52.48767,21.91558 c -28.86823,12.05357 -53.09048,22.155 -53.82724,22.44762 -0.94516,0.37539 -1.17437,-0.0172 -0.77849,-1.33325 z m 189.50396,-67.49172 c 31.08604,-4.75969 53.44187,-26.0912 59.2317,-56.51779 4.35612,-22.89215 15.06027,-97.28389 15.52829,-107.91859 0.60779,-13.81051 -0.94423,-21.41406 -6.80871,-33.35665 -3.26409,-6.64707 -5.79584,-10.03856 -12.47726,-16.71433 -9.30612,-9.29822 -18.41231,-14.72018 -31.43761,-18.7184 -10.89499,-3.3443 -24.24988,-2.93251 -94.67403,2.91919 -88.78456,7.3773 -86.27021,7.03003 -100.06996,13.82132 -20.15299,9.91792 -33.74756,28.3825 -37.43477,50.84511 -1.46702,8.93715 -1.46973,10.47966 -0.0332,18.95611 2.5823,15.23767 25.51911,92.07748 30.63344,102.62399 7.00763,14.45078 19.69524,26.04052 35.7589,32.66464 11.46167,4.72641 8.73739,4.42964 94.20096,10.26153 41.26352,2.81576 37.22601,2.71954 47.58229,1.13387 z M 484.4874,422.57984 c 7.95835,-5.26658 11.77498,-15.34776 8.99711,-23.76479 -1.42951,-4.33146 -6.96746,-10.782 -11.08434,-12.91092 -4.36447,-2.25696 -15.1878,-1.97376 -20.08692,0.52558 -15.08568,7.69614 -15.33727,28.98333 -0.43626,36.91124 3.89415,2.07183 5.72561,2.41934 11.58166,2.19754 5.67428,-0.2149 7.70649,-0.76009 11.02875,-2.95865 z m 17.99055,-69.92952 c 16.14845,-11.33782 9.52457,-36.12372 -10.0319,-37.5383 -8.27953,-0.59888 -11.82312,0.3478 -16.59682,4.43391 -12.01716,10.28624 -9.89162,27.24312 4.38847,35.00982 2.15065,1.1697 4.9694,1.53034 10.46731,1.33923 6.56796,-0.2283 8.06398,-0.64061 11.77294,-3.24466 z"
       id="path2" />
    <path
       style="fill:#ffffff;stroke-width:0.981078"
       d="m 404.8019,515.33669 c -0.3907,-0.39069 -25.51856,-0.76581 -55.83969,-0.83358 l -55.12934,-0.12323 -9.36985,-2.49404 c -5.15342,-1.37173 -12.45082,-3.80512 -16.21645,-5.40754 -7.87141,-3.34958 -19.54329,-10.18479 -19.54329,-11.44481 0,-0.88391 6.1676,-3.61585 29.12555,-12.90122 l 13.42829,-5.43108 61.13364,4.11396 c 65.40179,4.40119 96.94197,5.29493 107.2443,3.03892 36.33438,-7.95651 65.96584,-30.09231 81.66854,-61.00943 4.16127,-8.19315 7.82365,-19.93711 25.22519,-80.88855 16.00163,-56.04802 16.97458,-60.11483 17.8655,-74.67583 l 0.63351,-10.3539 4.79573,4.71817 c 10.66841,10.49584 20.42993,28.0898 24.331,43.85367 1.89595,7.66137 2.10757,10.64415 1.7401,24.52695 l -0.41834,15.80486 -7.58291,25.99857 c -12.74522,43.69793 -20.29264,67.88083 -23.15697,74.198 -9.39986,20.73092 -28.23555,38.3017 -54.69385,51.02082 -20.33538,9.77571 -28.12573,11.81454 -55.84685,14.61581 -32.50977,3.28517 -67.90825,5.15905 -69.39381,3.67348 z"
       id="path3" />
    <ellipse
       style="fill:#ffffff"
       id="path10"
       cx="390.46906"
       cy="259.00461"
       rx="37.280964"
       ry="35.31881" />
  </g>
  <g
     inkscape:groupmode="layer"
     id="layer1"
     inkscape:label="wireless"
     transform="matrix(0.61671105,0,0,0.49975444,74.90019,-112.70987)">
    <path
       style="fill:#ffffff;stroke-width:0.981078"
       d="m 171.19812,91.35727 c -5.44014,-2.498122 -7.76439,-5.388834 -7.64753,-9.511387 0.12527,-4.419092 0.94904,-5.321179 10.75839,-11.781143 29.28127,-19.283218 69.55191,-32.894593 111.67527,-37.745958 13.08475,-1.506977 49.45489,-1.538989 62.29846,-0.05483 32.11888,3.711537 64.2828,12.997471 90.21995,26.047088 18.2845,9.199384 28.83772,16.133847 31.05735,20.407613 1.19988,2.310303 1.20224,3.145315 0.0169,5.982155 -3.14947,7.537744 -14.90085,10.21232 -23.35217,5.314878 -2.33702,-1.354272 -9.22333,-5.340366 -15.30292,-8.857987 -68.11678,-39.41203 -165.00328,-38.244368 -232.95392,2.807527 -16.50771,9.973013 -19.40627,10.773404 -26.76982,7.392049 z"
       id="path5"
       transform="matrix(1.6215049,0,0,2.0009827,-121.45103,225.5305)" />
    <path
       style="fill:#ffffff;stroke-width:0.981078"
       d="m 211.34521,122.73646 c -4.61242,-2.09485 -8.26206,-6.25686 -8.26206,-9.42195 0,-3.27858 3.19014,-6.71851 10.52894,-11.35338 54.11071,-34.174011 132.38605,-37.686399 191.08437,-8.574385 12.83512,6.365705 23.16721,13.377075 24.85911,16.869435 1.81255,3.74138 -0.007,7.88544 -4.87744,11.10855 -3.2797,2.17041 -4.56072,2.42874 -10.39055,2.09535 -5.46324,-0.31242 -7.43734,-0.92187 -11.0645,-3.41587 -14.12745,-9.71388 -37.50505,-18.90505 -57.39307,-22.564736 -14.93224,-2.747754 -46.3626,-2.49284 -60.21819,0.488397 -20.38726,4.386619 -36.97434,10.719409 -51.04177,19.487259 -11.90955,7.42289 -16.30757,8.423 -23.22484,5.28133 z"
       id="path6"
       transform="matrix(1.6215049,0,0,2.0009827,-121.45103,225.5305)" />
    <path
       style="fill:#ffffff;stroke-width:0.981078"
       d="m 251.56941,154.13096 c -4.75577,-2.15996 -8.26206,-6.27911 -8.26206,-9.70616 0,-8.20737 27.93244,-22.06466 52.88731,-26.23741 13.47677,-2.25348 36.97044,-1.60782 49.26937,1.35403 15.36074,3.6992 33.08427,11.62878 40.6935,18.20644 3.08701,2.66851 3.72288,3.85232 3.72288,6.93086 0,4.53447 -4.09325,8.68637 -10.17932,10.32518 -5.61995,1.51329 -9.49761,0.49617 -18.65441,-4.8931 -4.40412,-2.59206 -12.27846,-6.18466 -17.49854,-7.98356 -9.34245,-3.21952 -9.75991,-3.27082 -26.65993,-3.27612 -16.88984,-0.005 -17.32034,0.0472 -26.48911,3.23028 -5.12613,1.77962 -11.30692,4.39128 -13.73509,5.80368 -14.92243,8.68001 -18.03143,9.45382 -25.0946,6.24588 z"
       id="path7"
       transform="matrix(1.6215049,0,0,2.0009827,-121.45103,225.5305)" />
    <path
       style="fill:#ffffff;stroke-width:0.981078"
       d=""
       id="path9"
       transform="matrix(1.6215049,0,0,2.0009827,-121.45103,225.5305)" />
  </g>
</svg>
